<svg width="195" height="51" viewBox="0 0 195 51" fill="none" xmlns="http://www.w3.org/2000/svg">
<path d="M47.4902 20.1201C50.3937 20.1201 52.9751 20.7298 55.2334 21.9492C57.4915 23.1686 59.2484 24.9077 60.5029 27.167C61.7933 29.4264 62.4384 32.0627 62.4385 35.0752C62.4385 35.9359 62.3839 36.8331 62.2764 37.7656H41.4688C41.6122 39.6305 42.2037 41.0652 43.2432 42.0693C44.3185 43.0375 45.6268 43.5215 47.168 43.5215C49.462 43.5214 51.057 42.5529 51.9531 40.6162H61.7393C61.2374 42.5887 60.3233 44.3644 58.9971 45.9424C57.7066 47.5204 56.075 48.7577 54.1035 49.6543C52.1321 50.5508 49.9276 50.999 47.4902 50.999C44.551 50.999 41.9347 50.3714 39.6406 49.1162C37.3466 47.861 35.5541 46.0683 34.2637 43.7373C32.9732 41.4061 32.3281 38.6798 32.3281 35.5596C32.3282 32.4394 32.9554 29.714 34.21 27.3828C35.5003 25.0518 37.292 23.2582 39.5859 22.0029C41.88 20.7477 44.5151 20.1201 47.4902 20.1201ZM175.618 20.1201C177.733 20.1201 179.579 20.5505 181.156 21.4111C182.769 22.2719 184.006 23.4021 184.866 24.8008V20.5508H194.061V50.5693H184.866V46.3193C183.97 47.7179 182.715 48.8473 181.103 49.708C179.525 50.5688 177.679 50.999 175.564 50.999C173.127 50.999 170.905 50.3715 168.897 49.1162C166.89 47.8251 165.295 46.0138 164.112 43.6826C162.965 41.3156 162.392 38.5901 162.392 35.5059C162.392 32.4215 162.965 29.714 164.112 27.3828C165.295 25.0516 166.89 23.2582 168.897 22.0029C170.905 20.7478 173.145 20.1201 175.618 20.1201ZM13.8721 12.2656C18.0301 12.2656 21.3817 13.27 23.9268 15.2783C26.4718 17.2509 27.8344 20.0129 28.0137 23.5635H18.0664C17.9947 22.3441 17.5461 21.3933 16.7217 20.7119C15.8973 19.9947 14.8401 19.6358 13.5498 19.6357C12.4386 19.6357 11.5424 19.9411 10.8613 20.5508C10.1804 21.1246 9.83984 21.9674 9.83984 23.0791C9.83991 24.2984 10.4136 25.2483 11.5605 25.9297C12.7076 26.6111 14.5 27.3467 16.9375 28.1357C19.3748 28.9606 21.3461 29.7498 22.8516 30.5029C24.3929 31.2561 25.7198 32.3496 26.8311 33.7842C27.9422 35.2187 28.497 37.0659 28.4971 39.3252C28.4971 41.477 27.9422 43.4321 26.8311 45.1895C25.7557 46.9468 24.1777 48.3457 22.0986 49.3857C20.0196 50.4257 17.5641 50.9453 14.7324 50.9453C11.9724 50.9453 9.49903 50.4972 7.3125 49.6006C5.126 48.704 3.36923 47.3774 2.04297 45.6201C0.752519 43.8628 0.0716916 41.7461 0 39.2715H9.78613C9.92952 40.6702 10.4129 41.7468 11.2373 42.5C12.0618 43.2173 13.1376 43.5752 14.4639 43.5752C15.826 43.5752 16.9018 43.2708 17.6904 42.6611C18.4788 42.0157 18.8729 41.1369 18.873 40.0254C18.873 39.093 18.5503 38.3216 17.9053 37.7119C17.2959 37.1022 16.5248 36.5996 15.5928 36.2051C14.6966 35.8106 13.4063 35.3624 11.7217 34.8604C9.28416 34.1072 7.2943 33.3537 5.75293 32.6006C4.21177 31.8474 2.88552 30.7359 1.77441 29.2656C0.663194 27.7952 0.107422 25.8759 0.107422 23.5088C0.107533 19.9944 1.38001 17.2508 3.9248 15.2783C6.4698 13.27 9.78578 12.2657 13.8721 12.2656ZM68.0361 18.0664C67.8103 7.81357 77.7478 3.86913 80.5459 5.89258C79.0783 16.2275 73.5475 16.5954 71.5449 17.7422C70.414 18.3901 69.8158 19.4685 69.5068 20.5508H76.4834V24.5312C77.4154 23.2044 78.6699 22.1642 80.2471 21.4111C81.8242 20.6222 83.5989 20.2275 85.5703 20.2275C89.0831 20.2276 91.879 21.3756 93.958 23.6709C96.0728 25.9303 97.1299 29.0504 97.1299 33.0312V50.5693H87.9893V34.2686C87.9892 32.2602 87.4702 30.6997 86.4307 29.5879C85.3911 28.4761 83.9928 27.9209 82.2363 27.9209C80.4799 27.9209 79.0815 28.4761 78.042 29.5879C77.0025 30.6997 76.4834 32.2602 76.4834 34.2686V50.5693H67.2891V20.5508H67.3311C67.0384 19.7642 66.5042 19.0061 65.54 18.4033C57.164 15.6622 58.7581 6.70264 60.1758 6.38086C68.7961 10.7283 67.3279 17.0994 68.0361 18.0664ZM114.166 20.5508H120.188V28.1895H114.166V40.2402C114.166 41.1366 114.381 41.7822 114.811 42.1768C115.241 42.5713 115.958 42.7686 116.962 42.7686H120.241V50.5693H115.563C112.23 50.5693 109.631 49.7621 107.768 48.1484C105.904 46.4987 104.972 43.8267 104.972 40.1328V28.1895H101.315V20.5508H104.972V13.2344H114.166V20.5508ZM143.967 29.9648H141.439C139.146 29.9649 137.425 30.4675 136.278 31.4717C135.131 32.44 134.558 34.1612 134.558 36.6357V50.5693H125.363V20.5508H134.558V25.5537C135.633 23.9039 136.977 22.6122 138.59 21.6797C140.203 20.7114 141.995 20.2276 143.967 20.2275V29.9648ZM157.557 50.5693H148.361V20.5508H157.557V50.5693ZM178.307 28.1357C176.479 28.1358 174.919 28.7991 173.629 30.126C172.374 31.4171 171.747 33.2106 171.747 35.5059C171.747 37.8012 172.374 39.6303 173.629 40.9932C174.919 42.3201 176.479 42.9834 178.307 42.9834C180.135 42.9834 181.676 42.3201 182.931 40.9932C184.221 39.6662 184.866 37.8549 184.866 35.5596C184.866 33.2643 184.221 31.4529 182.931 30.126C181.676 28.7992 180.135 28.1357 178.307 28.1357ZM47.3828 27.4902C45.8416 27.4902 44.5333 27.9385 43.458 28.835C42.4186 29.7315 41.7734 31.0048 41.5225 32.6543H53.0283C53.0282 31.0765 52.4912 29.8211 51.416 28.8887C50.3406 27.9562 48.9959 27.4902 47.3828 27.4902ZM76.6279 8.04883C76.5164 7.82987 76.2846 7.76415 76.1094 7.90332C73.2148 10.201 70.9458 13.8794 69.8896 15.916C69.7772 16.1342 69.8273 16.4243 70.001 16.5654C70.1749 16.7058 70.4083 16.6433 70.5205 16.4258C71.5308 14.4679 73.7709 10.8634 76.5117 8.69727C76.6868 8.55765 76.7388 8.2679 76.6279 8.04883ZM61.9229 9.37793C61.7765 9.19441 61.5389 9.19444 61.3926 9.37793C61.2456 9.56102 61.2456 9.85895 61.3926 10.042C62.3949 11.2923 64.6616 14.7191 65.4814 16.2041C65.5996 16.4173 65.8343 16.471 66.0049 16.3232C66.1754 16.1755 66.2175 15.8824 66.0996 15.6689C65.2286 14.0994 62.9875 10.7119 61.9229 9.37793ZM153.134 0C154.193 5.90794e-05 155.241 0.208802 156.22 0.614258C157.198 1.01973 158.087 1.61411 158.836 2.36328C159.585 3.11261 160.18 4.0024 160.585 4.98145C160.99 5.9604 161.198 7.00973 161.198 8.06934C161.198 9.66526 160.726 11.2257 159.84 12.5527C158.954 13.8797 157.693 14.9136 156.22 15.5244C154.746 16.1352 153.124 16.2957 151.56 15.9844C149.995 15.673 148.559 14.9038 147.431 13.7754C146.303 12.6468 145.534 11.2089 145.223 9.64355C144.912 8.07836 145.071 6.45583 145.682 4.98145C146.292 3.50704 147.326 2.24703 148.652 1.36035C149.979 0.47366 151.539 0 153.134 0ZM157.083 3.5459C157.083 3.5459 152.552 3.28123 150.524 5.30957C148.745 7.08912 148.64 8.96612 149.6 10.3584L152.874 7.08203C152.911 7.044 152.956 7.01295 153.005 6.99219C153.054 6.9716 153.106 6.96127 153.159 6.96094C153.212 6.96067 153.266 6.97092 153.315 6.99121C153.365 7.0115 153.41 7.04145 153.447 7.0791C153.485 7.11678 153.515 7.1617 153.535 7.21094C153.555 7.26016 153.566 7.31301 153.565 7.36621C153.565 7.41951 153.554 7.47239 153.533 7.52148C153.512 7.57049 153.482 7.61506 153.444 7.65234L148.93 12.1689C148.855 12.2448 148.814 12.347 148.814 12.4531C148.815 12.5595 148.857 12.6621 148.933 12.7373C149.008 12.8124 149.11 12.8548 149.216 12.8555C149.322 12.856 149.425 12.8147 149.501 12.7402L150.767 11.4727C152.142 12.3237 153.946 12.1637 155.662 10.4482C157.681 8.42711 157.426 3.92379 157.424 3.88672C157.416 3.79877 157.379 3.71565 157.316 3.65332C157.254 3.59099 157.171 3.55307 157.083 3.5459Z" fill="#F5FEFD"/>
</svg>
