<svg width="200" height="199" viewBox="0 0 200 199" fill="none" xmlns="http://www.w3.org/2000/svg">
<path d="M100 0.00878906C155.225 0.00879111 200 44.4082 200 99.1748C200 153.95 155.225 198.342 100 198.342C44.775 198.342 0 153.933 0 99.1748C0.00011024 44.3916 44.7751 0 100 0V0.00878906ZM129 21.3574C122.495 16.6921 99.3931 25.787 99.918 49.4268C98.2715 47.1972 101.685 32.5071 81.6436 22.4834C78.3477 23.2257 74.6432 43.8843 94.1162 50.2041C99.4101 53.4865 99.1311 58.7603 99.0371 62.2041L55.875 83.333V85.0254H60.6914V89.2754L5.99121 75.3086C4.03294 82.9418 2.99121 90.9421 2.99121 99.167C2.98763 109.583 4.68299 119.929 8.00879 129.8L60.7002 119.275V124.691H40.4082V133.775H36.9668L36.958 135.975L60 148.25L54.292 184.167C54.8308 184.445 55.3727 184.717 55.917 184.983V185.009H56C69.697 191.967 84.8447 195.59 100.208 195.583C116.205 195.607 131.964 191.695 146.092 184.191L147.783 183.267L142.2 148.108L165.075 135.85L165.092 133.783H161.816V124.691H141.583V119.259L192.517 129.425C198.267 112.137 198.983 93.571 194.583 75.8916L141.583 89.3838V85.1836H145.967V83.333L102.655 61.9072C102.494 58.975 102.685 51.7414 108.075 48.6787C112.731 46.0346 125.588 45.1866 129 21.3574ZM143.233 165.7L146.092 184.191L56 185.009L55.9082 184.967L58.9834 165.7H143.233ZM161.816 135.775L140.366 147.191H61.8496L40.4004 135.775H161.816ZM60.6914 127.025V133.775H42.2168V127.025H60.6914ZM88.5254 127.025V133.775H63.4414V127.025H88.5254ZM112.059 127.025V133.775H90.3496V127.025H112.059ZM140.384 127.025V133.775H113.884V127.025H140.384ZM160 127.025V133.775H142.2V127.025H160ZM140.366 124.358L140.4 124.934H63.4414V124.358H140.366ZM85.6582 122.066H63.4414V118.717L85.6582 114.292V122.066ZM89.8916 122.066H88.4082V113.733L90.6914 113.275L89.8916 122.066ZM108.691 94.833L111.184 122.066H91.1162L93.5996 94.833H108.691ZM113.934 113.717V122.066H112.4L111.592 113.259L113.934 113.717ZM138.833 118.7V122.066H116.684V114.275L138.833 118.7ZM63.4414 89.958V118.717L60.7002 119.275L60.6914 89.2754L63.4414 89.958ZM141.583 119.259L138.833 118.7V90.083L141.583 89.3838V119.259ZM88.4082 96.3164V113.733L85.6748 114.292V95.625L88.4082 96.3164ZM138.833 86.7832V90.083L116.684 95.7334V114.275L113.934 113.717L113.95 96.4336L116.667 95.7334V86.7832H138.833ZM113.95 86.7832V96.4336L110.134 97.3916L109.8 93.6162H92.5L92.1748 97.2754L88.4082 96.3164V86.7832H113.95ZM85.6748 86.7832V95.625L63.4414 89.958V86.7832H85.6748ZM102.638 63.1748L144.775 84.0498H57.0498L99.6299 63.1748H102.638ZM118.687 25.9951C119.094 25.6734 119.632 25.8247 119.892 26.3301C120.149 26.8354 120.029 27.5035 119.622 27.8252C113.25 32.8199 108.042 41.1305 105.693 45.6445C105.432 46.1461 104.891 46.2904 104.486 45.9668C104.082 45.6412 103.966 44.9712 104.229 44.4678C106.684 39.772 111.957 31.2928 118.687 25.9951ZM84.4727 29.3945C84.8129 28.9706 85.3667 28.9706 85.707 29.3945C88.182 32.4702 93.3911 40.2785 95.416 43.8975C95.6906 44.3896 95.592 45.0655 95.1953 45.4062C94.7986 45.747 94.2541 45.6239 93.9795 45.1318C92.0736 41.7079 86.8028 33.8074 84.4727 30.9248C84.1312 30.5029 84.1312 29.8166 84.4727 29.3945Z" fill="#F5FEFD"/>
</svg>
